<svg width="309" height="45" viewBox="0 0 309 45" fill="none" xmlns="http://www.w3.org/2000/svg">
<path d="M122.684 22.922C122.684 30.248 117.866 35.396 110.936 35.396C104.039 35.396 99.287 30.281 99.287 22.922C99.287 15.596 104.072 10.448 110.969 10.448C117.866 10.448 122.684 15.563 122.684 22.922ZM118.229 22.922C118.229 17.774 115.391 14.507 110.969 14.507C106.547 14.507 103.709 17.774 103.709 22.922C103.709 28.07 106.547 31.337 110.969 31.337C115.391 31.337 118.229 28.004 118.229 22.922ZM131.565 35H127.539V22.064H124.404V18.698H127.539V13.616H131.565V18.698H134.733V22.064H131.565V35ZM139.249 15.431C137.863 15.431 136.774 14.342 136.774 12.989C136.774 11.636 137.863 10.58 139.249 10.58C140.569 10.58 141.658 11.636 141.658 12.989C141.658 14.342 140.569 15.431 139.249 15.431ZM137.236 35V18.698H141.262V35H137.236ZM149.448 35H145.422V18.698H149.118L149.448 20.612C150.273 19.259 151.923 18.203 154.266 18.203C156.741 18.203 158.457 19.424 159.315 21.305C160.14 19.424 162.054 18.203 164.529 18.203C168.489 18.203 170.667 20.579 170.667 24.341V35H166.674V25.397C166.674 23.054 165.42 21.833 163.506 21.833C161.559 21.833 160.074 23.087 160.074 25.76V35H156.048V25.364C156.048 23.087 154.827 21.866 152.913 21.866C150.999 21.866 149.448 23.12 149.448 25.76V35ZM176.632 15.431C175.246 15.431 174.157 14.342 174.157 12.989C174.157 11.636 175.246 10.58 176.632 10.58C177.952 10.58 179.041 11.636 179.041 12.989C179.041 14.342 177.952 15.431 176.632 15.431ZM174.619 35V18.698H178.645V35H174.619ZM195.114 35H181.947V31.7L190.065 22.064H181.947V18.698H195.114V22.031L186.864 31.634H195.114V35ZM203.253 35.429C199.788 35.429 197.676 33.416 197.676 30.347C197.676 27.344 199.854 25.463 203.715 25.166L208.599 24.803V24.44C208.599 22.229 207.279 21.338 205.233 21.338C202.857 21.338 201.537 22.328 201.537 24.044H198.105C198.105 20.513 201.009 18.203 205.431 18.203C209.82 18.203 212.526 20.579 212.526 25.1V35H208.995L208.698 32.591C208.005 34.274 205.794 35.429 203.253 35.429ZM204.573 32.393C207.048 32.393 208.632 30.908 208.632 28.4V27.542L205.233 27.806C202.725 28.037 201.768 28.862 201.768 30.182C201.768 31.667 202.758 32.393 204.573 32.393ZM221.167 35H217.075V10.877H221.167L228.955 30.083L236.743 10.877H240.901V35H236.809V27.575C236.809 22.724 236.809 21.305 237.04 19.589L230.902 35H227.008L220.903 19.622C221.134 21.074 221.167 23.351 221.167 26.354V35ZM252.939 35.429C248.088 35.429 244.689 31.898 244.689 26.849C244.689 21.734 248.022 18.203 252.807 18.203C257.691 18.203 260.793 21.47 260.793 26.552V27.773L248.517 27.806C248.814 30.677 250.332 32.129 253.005 32.129C255.216 32.129 256.668 31.271 257.13 29.72H260.859C260.166 33.284 257.196 35.429 252.939 35.429ZM252.84 21.503C250.464 21.503 249.012 22.79 248.616 25.232H256.8C256.8 22.988 255.249 21.503 252.84 21.503ZM270.715 35.429C265.996 35.429 263.059 31.964 263.059 26.915C263.059 21.833 266.029 18.203 270.946 18.203C273.223 18.203 275.236 19.16 276.259 20.777V10.448H280.252V35H276.556L276.292 32.459C275.302 34.34 273.19 35.429 270.715 35.429ZM271.606 31.733C274.411 31.733 276.226 29.72 276.226 26.783C276.226 23.846 274.411 21.8 271.606 21.8C268.801 21.8 267.085 23.879 267.085 26.783C267.085 29.687 268.801 31.733 271.606 31.733ZM286.46 15.431C285.074 15.431 283.985 14.342 283.985 12.989C283.985 11.636 285.074 10.58 286.46 10.58C287.78 10.58 288.869 11.636 288.869 12.989C288.869 14.342 287.78 15.431 286.46 15.431ZM284.447 35V18.698H288.473V35H284.447ZM297.484 35.429C294.019 35.429 291.907 33.416 291.907 30.347C291.907 27.344 294.085 25.463 297.946 25.166L302.83 24.803V24.44C302.83 22.229 301.51 21.338 299.464 21.338C297.088 21.338 295.768 22.328 295.768 24.044H292.336C292.336 20.513 295.24 18.203 299.662 18.203C304.051 18.203 306.757 20.579 306.757 25.1V35H303.226L302.929 32.591C302.236 34.274 300.025 35.429 297.484 35.429ZM298.804 32.393C301.279 32.393 302.863 30.908 302.863 28.4V27.542L299.464 27.806C296.956 28.037 295.999 28.862 295.999 30.182C295.999 31.667 296.989 32.393 298.804 32.393Z" fill="black"/>
<g clip-path="url(#clip0_171_2)">
<path d="M81.6709 7.29629C78.8793 4.5258 75.1677 3 71.2198 3C67.5604 3 64.1043 4.31181 61.3953 6.71011C58.6862 4.31181 55.2306 3 51.5707 3C48.5797 3 45.7249 3.87643 43.3021 5.50595C43.2349 5.55084 43.1686 5.59616 43.1028 5.64193C43.0909 5.65021 43.0786 5.65849 43.0667 5.66677C41.694 6.62164 40.4881 7.81099 39.4996 9.19863C39.4851 9.21868 39.4706 9.23873 39.4566 9.25878C39.4179 9.31369 39.3797 9.36947 39.3415 9.42526C39.3037 9.48017 39.2664 9.53465 39.2295 9.59C39.2111 9.61745 39.1931 9.64535 39.1751 9.6728C39.1224 9.75299 39.0701 9.83362 39.0192 9.91468C39.017 9.91817 39.0143 9.92209 39.0121 9.92558L27.6919 27.9567C27.6893 27.9553 27.6862 27.9545 27.6831 27.9532C25.8967 30.5376 22.8789 32.2211 19.4764 32.1623C14.1435 32.0699 9.85393 27.686 9.91277 22.3926C9.97118 17.114 14.3165 12.8373 19.649 12.8373C22.8736 12.8373 25.7364 14.4014 27.5097 16.805L32.9463 8.14526C31.2815 6.62426 29.3857 5.41094 27.2984 4.53495C24.8731 3.51644 22.2992 3 19.649 3C16.9988 3 14.425 3.51644 11.9991 4.53451C9.65895 5.51685 7.55809 6.92236 5.75497 8.71139C3.95185 10.5009 2.53605 12.5854 1.54622 14.9083C0.520384 17.3153 0 19.8696 0 22.5002C0 25.1308 0.520384 27.6847 1.54622 30.0922C2.53605 32.4146 3.95229 34.4996 5.75497 36.2891C7.55809 38.0785 9.65851 39.4836 11.9991 40.4659C14.4245 41.484 16.9983 42.0004 19.649 42.0004C21.2892 42.0004 22.9004 41.8021 24.4651 41.4099L24.4884 41.4217C24.6205 41.3018 30.5046 40.2563 34.9479 34.867C35.1455 34.6273 35.3255 34.3736 35.4907 34.1108L47.4244 15.1279C48.1121 14.0327 49.1884 13.2687 50.4549 12.9767C51.7218 12.6852 53.0269 12.9 54.131 13.5825C54.2522 13.6575 54.3786 13.7368 54.5086 13.8192C55.6807 14.7021 56.4395 16.0989 56.4395 17.6687V32.1636C56.4395 37.5965 60.8771 42.0004 66.3514 42.0004V17.7285C66.3514 15.1192 68.4123 12.9349 71.0397 12.8403C73.8059 12.7405 76.0885 14.9453 76.0885 17.6687V32.1636C76.0885 37.5965 80.5261 42.0004 86.0004 42.0004V17.6683C86.0004 13.7503 84.463 10.0668 81.6714 7.29629H81.6709Z" fill="#7C44F0"/>
</g>
<defs>
<clipPath id="clip0_171_2">
<rect width="86" height="39" fill="white" transform="translate(0 3)"/>
</clipPath>
</defs>
</svg>
