<svg width="86" height="39" viewBox="0 0 86 39" fill="none" xmlns="http://www.w3.org/2000/svg">
<g clip-path="url(#clip0_133_44)">
<path d="M81.6709 4.29629C78.8793 1.5258 75.1677 0 71.2198 0C67.5604 0 64.1043 1.31181 61.3953 3.71011C58.6862 1.31181 55.2306 0 51.5707 0C48.5797 0 45.7249 0.876429 43.3021 2.50595C43.2349 2.55084 43.1686 2.59616 43.1028 2.64193C43.0909 2.65021 43.0786 2.65849 43.0667 2.66677C41.694 3.62164 40.4881 4.81099 39.4996 6.19863C39.4851 6.21868 39.4706 6.23873 39.4566 6.25878C39.4179 6.31369 39.3797 6.36947 39.3415 6.42526C39.3037 6.48017 39.2664 6.53465 39.2295 6.59C39.2111 6.61745 39.1931 6.64535 39.1751 6.6728C39.1224 6.75299 39.0701 6.83362 39.0192 6.91468C39.017 6.91817 39.0143 6.92209 39.0121 6.92558L27.6919 24.9567C27.6893 24.9553 27.6862 24.9545 27.6831 24.9532C25.8967 27.5376 22.8789 29.2211 19.4764 29.1623C14.1435 29.0699 9.85393 24.686 9.91277 19.3926C9.97118 14.114 14.3165 9.83727 19.649 9.83727C22.8736 9.83727 25.7364 11.4014 27.5097 13.805L32.9463 5.14526C31.2815 3.62426 29.3857 2.41094 27.2984 1.53495C24.8731 0.516444 22.2992 0 19.649 0C16.9988 0 14.425 0.516444 11.9991 1.53451C9.65895 2.51685 7.55809 3.92236 5.75497 5.71139C3.95185 7.50086 2.53605 9.58537 1.54622 11.9083C0.520384 14.3153 0 16.8696 0 19.5002C0 22.1308 0.520384 24.6847 1.54622 27.0922C2.53605 29.4146 3.95229 31.4996 5.75497 33.2891C7.55809 35.0785 9.65851 36.4836 11.9991 37.4659C14.4245 38.484 16.9983 39.0004 19.649 39.0004C21.2892 39.0004 22.9004 38.8021 24.4651 38.4099L24.4884 38.4217C24.6205 38.3018 30.5046 37.2563 34.9479 31.867C35.1455 31.6273 35.3255 31.3736 35.4907 31.1108L47.4244 12.1279C48.1121 11.0327 49.1884 10.2687 50.4549 9.97674C51.7218 9.68517 53.0269 9.90003 54.131 10.5825C54.2522 10.6575 54.3786 10.7368 54.5086 10.8192C55.6807 11.7021 56.4395 13.0989 56.4395 14.6687V29.1636C56.4395 34.5965 60.8771 39.0004 66.3514 39.0004V14.7285C66.3514 12.1192 68.4123 9.9349 71.0397 9.84032C73.8059 9.74052 76.0885 11.9453 76.0885 14.6687V29.1636C76.0885 34.5965 80.5261 39.0004 86.0004 39.0004V14.6683C86.0004 10.7503 84.463 7.06678 81.6714 4.29629H81.6709Z" fill="#7C44F0"/>
</g>
<defs>
<clipPath id="clip0_133_44">
<rect width="86" height="39" fill="white"/>
</clipPath>
</defs>
</svg>
