<svg width="211" height="82" viewBox="0 0 211 82" fill="none" xmlns="http://www.w3.org/2000/svg">
<path d="M92.47 46.27C91.71 46.27 91.13 46.06 90.73 45.64C90.33 45.22 90.13 44.63 90.13 43.87V27.22C90.13 26.44 90.33 25.85 90.73 25.45C91.15 25.05 91.74 24.85 92.5 24.85H99.79C102.15 24.85 103.97 25.45 105.25 26.65C106.53 27.83 107.17 29.48 107.17 31.6C107.17 33.72 106.53 35.38 105.25 36.58C103.97 37.78 102.15 38.38 99.79 38.38H94.78V43.87C94.78 44.63 94.58 45.22 94.18 45.64C93.8 46.06 93.23 46.27 92.47 46.27ZM94.78 34.78H99.01C100.21 34.78 101.12 34.51 101.74 33.97C102.38 33.43 102.7 32.64 102.7 31.6C102.7 30.56 102.38 29.78 101.74 29.26C101.12 28.74 100.21 28.48 99.01 28.48H94.78V34.78ZM111.709 46.27C110.949 46.27 110.369 46.07 109.969 45.67C109.569 45.27 109.369 44.7 109.369 43.96V33.31C109.369 32.57 109.559 32.01 109.939 31.63C110.339 31.23 110.889 31.03 111.589 31.03C112.309 31.03 112.859 31.23 113.239 31.63C113.619 32.01 113.809 32.57 113.809 33.31V34.87H113.509C113.749 33.67 114.279 32.74 115.099 32.08C115.919 31.42 116.979 31.05 118.279 30.97C118.779 30.93 119.159 31.06 119.419 31.36C119.699 31.64 119.849 32.11 119.869 32.77C119.909 33.39 119.779 33.88 119.479 34.24C119.199 34.6 118.719 34.82 118.039 34.9L117.349 34.96C116.209 35.06 115.359 35.39 114.799 35.95C114.259 36.51 113.989 37.32 113.989 38.38V43.96C113.989 44.7 113.789 45.27 113.389 45.67C113.009 46.07 112.449 46.27 111.709 46.27ZM128.549 46.33C126.969 46.33 125.589 46.02 124.409 45.4C123.249 44.78 122.349 43.89 121.709 42.73C121.069 41.57 120.749 40.2 120.749 38.62C120.749 37.44 120.929 36.38 121.289 35.44C121.649 34.5 122.169 33.7 122.849 33.04C123.549 32.36 124.379 31.85 125.339 31.51C126.299 31.15 127.369 30.97 128.549 30.97C130.129 30.97 131.499 31.28 132.659 31.9C133.839 32.52 134.749 33.4 135.389 34.54C136.049 35.68 136.379 37.04 136.379 38.62C136.379 39.82 136.189 40.89 135.809 41.83C135.449 42.77 134.929 43.58 134.249 44.26C133.569 44.94 132.739 45.46 131.759 45.82C130.799 46.16 129.729 46.33 128.549 46.33ZM128.549 42.94C129.209 42.94 129.779 42.78 130.259 42.46C130.739 42.14 131.119 41.67 131.399 41.05C131.679 40.41 131.819 39.6 131.819 38.62C131.819 37.16 131.519 36.09 130.919 35.41C130.319 34.71 129.529 34.36 128.549 34.36C127.909 34.36 127.339 34.51 126.839 34.81C126.359 35.11 125.979 35.58 125.699 36.22C125.439 36.84 125.309 37.64 125.309 38.62C125.309 40.08 125.609 41.17 126.209 41.89C126.809 42.59 127.589 42.94 128.549 42.94ZM141.475 46.27C140.735 46.27 140.165 46.07 139.765 45.67C139.385 45.27 139.195 44.7 139.195 43.96V33.31C139.195 32.57 139.385 32.01 139.765 31.63C140.165 31.23 140.715 31.03 141.415 31.03C142.135 31.03 142.685 31.23 143.065 31.63C143.445 32.01 143.635 32.57 143.635 33.31V35.23L143.305 34.03C143.705 33.11 144.325 32.37 145.165 31.81C146.005 31.25 146.995 30.97 148.135 30.97C149.275 30.97 150.225 31.24 150.985 31.78C151.745 32.32 152.285 33.15 152.605 34.27H152.185C152.625 33.25 153.295 32.45 154.195 31.87C155.115 31.27 156.165 30.97 157.345 30.97C158.485 30.97 159.415 31.2 160.135 31.66C160.875 32.1 161.425 32.78 161.785 33.7C162.145 34.6 162.325 35.75 162.325 37.15V43.96C162.325 44.7 162.125 45.27 161.725 45.67C161.345 46.07 160.795 46.27 160.075 46.27C159.335 46.27 158.765 46.07 158.365 45.67C157.985 45.27 157.795 44.7 157.795 43.96V37.3C157.795 36.32 157.635 35.61 157.315 35.17C157.015 34.71 156.495 34.48 155.755 34.48C154.895 34.48 154.225 34.78 153.745 35.38C153.265 35.98 153.025 36.83 153.025 37.93V43.96C153.025 44.7 152.825 45.27 152.425 45.67C152.045 46.07 151.495 46.27 150.775 46.27C150.055 46.27 149.495 46.07 149.095 45.67C148.695 45.27 148.495 44.7 148.495 43.96V37.3C148.495 36.32 148.335 35.61 148.015 35.17C147.715 34.71 147.195 34.48 146.455 34.48C145.595 34.48 144.925 34.78 144.445 35.38C143.965 35.98 143.725 36.83 143.725 37.93V43.96C143.725 45.5 142.975 46.27 141.475 46.27ZM172.875 46.33C171.295 46.33 169.915 46.02 168.735 45.4C167.575 44.78 166.675 43.89 166.035 42.73C165.395 41.57 165.075 40.2 165.075 38.62C165.075 37.44 165.255 36.38 165.615 35.44C165.975 34.5 166.495 33.7 167.175 33.04C167.875 32.36 168.705 31.85 169.665 31.51C170.625 31.15 171.695 30.97 172.875 30.97C174.455 30.97 175.825 31.28 176.985 31.9C178.165 32.52 179.075 33.4 179.715 34.54C180.375 35.68 180.705 37.04 180.705 38.62C180.705 39.82 180.515 40.89 180.135 41.83C179.775 42.77 179.255 43.58 178.575 44.26C177.895 44.94 177.065 45.46 176.085 45.82C175.125 46.16 174.055 46.33 172.875 46.33ZM172.875 42.94C173.535 42.94 174.105 42.78 174.585 42.46C175.065 42.14 175.445 41.67 175.725 41.05C176.005 40.41 176.145 39.6 176.145 38.62C176.145 37.16 175.845 36.09 175.245 35.41C174.645 34.71 173.855 34.36 172.875 34.36C172.235 34.36 171.665 34.51 171.165 34.81C170.685 35.11 170.305 35.58 170.025 36.22C169.765 36.84 169.635 37.64 169.635 38.62C169.635 40.08 169.935 41.17 170.535 41.89C171.135 42.59 171.915 42.94 172.875 42.94ZM190.544 46.33C189.164 46.33 188.004 46.1 187.064 45.64C186.144 45.18 185.454 44.51 184.994 43.63C184.554 42.75 184.334 41.64 184.334 40.3V34.66H183.074C182.514 34.66 182.074 34.51 181.754 34.21C181.454 33.91 181.304 33.5 181.304 32.98C181.304 32.42 181.454 32 181.754 31.72C182.074 31.42 182.514 31.27 183.074 31.27H184.334V28.99C184.334 28.23 184.534 27.66 184.934 27.28C185.334 26.88 185.894 26.68 186.614 26.68C187.354 26.68 187.914 26.88 188.294 27.28C188.674 27.66 188.864 28.23 188.864 28.99V31.27H191.714C192.274 31.27 192.704 31.42 193.004 31.72C193.304 32 193.454 32.42 193.454 32.98C193.454 33.5 193.304 33.91 193.004 34.21C192.704 34.51 192.274 34.66 191.714 34.66H188.864V40.12C188.864 40.96 189.054 41.59 189.434 42.01C189.834 42.43 190.464 42.64 191.324 42.64C191.624 42.64 191.904 42.61 192.164 42.55C192.424 42.49 192.664 42.45 192.884 42.43C193.164 42.41 193.394 42.5 193.574 42.7C193.754 42.88 193.844 43.29 193.844 43.93C193.844 44.41 193.764 44.83 193.604 45.19C193.444 45.55 193.164 45.81 192.764 45.97C192.504 46.07 192.144 46.15 191.684 46.21C191.244 46.29 190.864 46.33 190.544 46.33ZM202.947 46.33C201.207 46.33 199.707 46.02 198.447 45.4C197.207 44.76 196.247 43.87 195.567 42.73C194.907 41.57 194.577 40.21 194.577 38.65C194.577 37.13 194.897 35.8 195.537 34.66C196.177 33.5 197.067 32.6 198.207 31.96C199.367 31.3 200.677 30.97 202.137 30.97C203.197 30.97 204.157 31.15 205.017 31.51C205.877 31.85 206.617 32.35 207.237 33.01C207.857 33.65 208.327 34.44 208.647 35.38C208.967 36.3 209.127 37.33 209.127 38.47C209.127 38.85 209.007 39.14 208.767 39.34C208.527 39.52 208.177 39.61 207.717 39.61H198.297V37.27H205.857L205.377 37.69C205.377 36.87 205.257 36.19 205.017 35.65C204.777 35.09 204.427 34.67 203.967 34.39C203.527 34.11 202.977 33.97 202.317 33.97C201.577 33.97 200.947 34.14 200.427 34.48C199.907 34.82 199.507 35.31 199.227 35.95C198.947 36.59 198.807 37.36 198.807 38.26V38.5C198.807 40.02 199.157 41.14 199.857 41.86C200.577 42.58 201.637 42.94 203.037 42.94C203.517 42.94 204.067 42.88 204.687 42.76C205.307 42.64 205.887 42.45 206.427 42.19C206.887 41.97 207.297 41.9 207.657 41.98C208.017 42.04 208.297 42.2 208.497 42.46C208.697 42.72 208.807 43.02 208.827 43.36C208.867 43.7 208.797 44.04 208.617 44.38C208.437 44.7 208.137 44.97 207.717 45.19C207.037 45.57 206.267 45.85 205.407 46.03C204.567 46.23 203.747 46.33 202.947 46.33Z" fill="#2C2D36"/>
<path d="M34.6641 18.1641C29.0273 18.1641 23.5171 19.8356 18.8303 22.9672C14.1435 26.0988 10.4906 30.5499 8.33349 35.7576C6.1764 40.9653 5.612 46.6957 6.71168 52.2241C7.81136 57.7526 10.5257 62.8308 14.5115 66.8166C18.4973 70.8024 23.5755 73.5168 29.104 74.6164C34.6324 75.7161 40.3629 75.1517 45.5705 72.9946C50.7782 70.8375 55.2293 67.1846 58.3609 62.4978C61.4926 57.811 63.1641 52.3008 63.1641 46.6641L34.6641 46.6641L34.6641 18.1641Z" fill="#FFDC60"/>
<path d="M69.2778 40.582C69.2778 32.9714 66.2545 25.6725 60.873 20.291C55.4915 14.9094 48.1925 11.8861 40.5819 11.8861L40.5819 40.582H69.2778Z" fill="#5956E8"/>
</svg>
